# xmcd
#
# Track frame offsets:
#	150
#	17010
#	34470
#	74843
#	94710
#	114690
#	134028
#	153564
#	171348
#	241611
#	255231
#	273774
#	289082
#	313731
#
# Disc length: 4473 seconds
#
# Revision: 1
# Processed by: cddbd v1.5.2PL0 Copyright (c) Steve Scherf et al.
# Submitted via: audiograbber 1.83.01
#
DISCID=cb11770e
DTITLE=Robin Trower - RT@RO.80
DYEAR=2008
DGENRE=Blues
TTITLE0=Twice Removed From Yesterday
TTITLE1=Shame The Devil
TTITLE2=For Earth Below
TTITLE3=No Time
TTITLE4=The Fool And Me
TTITLE5=Roads To Freedom
TTITLE6=Islands
TTITLE7=Day Of The Eagle
TTITLE8=Bridge Of Sighs
TTITLE9=Rise Up Like The Sun
TTITLE10=Victims Of The Fury
TTITLE11=Gonna Be More Suspicious
TTITLE12=Hannah
TTITLE13=Little Bit Of Sympathy
EXTD=
EXTT0=
EXTT1=
EXTT2=
EXTT3=
EXTT4=
EXTT5=
EXTT6=
EXTT7=
EXTT8=
EXTT9=
EXTT10=
EXTT11=
EXTT12=
EXTT13=
PLAYORDER=
